<svg xmlns="http://www.w3.org/2000/svg" version="1.1" xmlns:xlink="http://www.w3.org/1999/xlink" xmlns:svgjs="http://svgjs.dev/svgjs" id="BgenPttrnSvgRootPreview" width="100%" height="100%"><defs><pattern x="0" y="0" width="1" height="1" patternUnits="userSpaceOnUse" id="BgenPttrnLayer1"><g id="PatternRootContent1"><g id="BgenPttrnLayer1background"><rect width="1" height="1" id="BgenPttrnBackground1" class="color_1 fill_color_1" fill="#b0b0b0"></rect></g></g></pattern><pattern x="0" y="0" width="140" height="242" patternUnits="userSpaceOnUse" id="BgenPttrnLayer2" patternTransform="matrix(0.5,0,0,0.5,0,0)"><g id="PatternRootContent2"><g id="BgenPttrnLayer2Element3"><use xlink:href="#BgenPttrnElement3" x="57.539825439453125" y="-132.562255859375" transform="translate(140, -60.5) scale(1) translate(-140, 60.5) rotate(90, 140, -60.5)"></use><use xlink:href="#BgenPttrnElement3" x="-82.46017456054688" y="-132.562255859375" transform="translate(0, -60.5) scale(1) translate(0, 60.5) rotate(90, 0, -60.5)"></use><use xlink:href="#BgenPttrnElement3" x="-12.460174560546875" y="-11.562255859375" transform="translate(70, 60.5) scale(1) translate(-70, -60.5) rotate(90, 70, 60.5)"></use><use xlink:href="#BgenPttrnElement3" x="-152.46017456054688" y="-11.562255859375" transform="translate(-70, 60.5) scale(1) translate(70, -60.5) rotate(90, -70, 60.5)"></use><use xlink:href="#BgenPttrnElement3" x="127.53982543945312" y="-11.562255859375" transform="translate(210, 60.5) scale(1) translate(-210, -60.5) rotate(90, 210, 60.5)"></use><use xlink:href="#BgenPttrnElement3" x="57.539825439453125" y="109.437744140625" transform="translate(140, 181.5) scale(1) translate(-140, -181.5) rotate(90, 140, 181.5)"></use><use xlink:href="#BgenPttrnElement3" x="-82.46017456054688" y="109.437744140625" transform="translate(0, 181.5) scale(1) translate(0, -181.5) rotate(90, 0, 181.5)"></use><use xlink:href="#BgenPttrnElement3" x="-12.460174560546875" y="230.437744140625" transform="translate(70, 302.5) scale(1) translate(-70, -302.5) rotate(90, 70, 302.5)"></use><use xlink:href="#BgenPttrnElement3" x="-12.460174560546875" y="230.437744140625" transform="translate(70, 302.5) scale(1) translate(-70, -302.5) rotate(90, 70, 302.5)"></use></g></g></pattern><symbol id="BgenPttrnElement3"><g class="color_4 fill_color_4" fill="#9c1717"><path d="M72.46,29.46426010131836l0,22l6,0l0,18l14,-24l-8,0l8,-16Z" transform="matrix(1,0,0,1,0,0)"></path><path d="M83.996,14.804007530212402l-19.053,-11l-3,5.196l-15.588,-9l13.785,24.124l4,-6.928l9.856,14.928Z" transform="matrix(1,0,0,1,0,0)"></path><path d="M90.924,32.124515533447266l19.053,-11l-3,-5.196l15.588,-9l-27.785,-0.124l4,6.928l-17.856,1.072Z" transform="matrix(1,0,0,1,0,0)"></path><path d="M114.351,42.1029052734375l-19.052,11l3,5.196l-15.588,9l27.785,0.124l-4,-6.928l17.856,-1.072Z" transform="matrix(1,0,0,1,0,0)"></path><path d="M132.815,44.763248443603516l0,-22l-6,0l0,-18l-13.999,24l8,0l-8,16Z" transform="matrix(1,0,0,1,0,0)"></path><path d="M121.279,59.4233283996582l19.053,11l3,-5.196l15.588,9l-13.785,-24.125l-4,6.928l-9.856,-14.928Z" transform="matrix(1,0,0,1,0,0)"></path><path d="M124.351,84.70089721679688l-19.052,-11l-3,5.196l-15.588,-9l13.785,24.124l4,-6.928l9.856,14.928Z" transform="matrix(1,0,0,1,0,0)"></path><path d="M131.279,102.02149200439453l19.053,-11l-3,-5.196l15.588,-9l-27.785,-0.124l4,6.928l-17.856,1.072Z" transform="matrix(1,0,0,1,0,0)"></path><path d="M112.815,99.36106872558594l0,22l6,0l0,18l14,-24.001l-8,0l8,-16Z" transform="matrix(1,0,0,1,0,0)"></path><path d="M92.46,114.66024780273438l0,-22l-6,0l0,-18l-14,24l8,0l-8,16Z" transform="matrix(1,0,0,1,0,0)"></path><path d="M80.924,129.32049560546875l19.053,11l3,-5.196l15.588,9l-13.785,-24.124l-4,6.928l-9.856,-14.928Z" transform="matrix(1,0,0,1,0,0)"></path><path d="M73.996,111.99999237060547l-19.053,11l3,5.196l-15.588,9l27.785,0.124l-4,-6.928l17.856,-1.072Z" transform="matrix(1,0,0,1,0,0)"></path><path d="M50.569,102.0216064453125l19.053,-11l-3,-5.196l15.588,-9l-27.785,-0.124l4,6.928l-17.856,1.072Z" transform="matrix(1,0,0,1,0,0)"></path><path d="M32.105,99.36125946044922l0,22l6,0l0,18l13.999,-24l-8,0l8,-16Z" transform="matrix(1,0,0,1,0,0)"></path><path d="M43.641,84.70117950439453l-19.053,-11l-3,5.196l-15.588,-9l13.785,24.125l4,-6.928l9.856,14.928Z" transform="matrix(1,0,0,1,0,0)"></path><path d="M40.569,59.423614501953125l19.053,11l3,-5.196l15.588,9l-13.785,-24.124l-4,6.928l-9.856,-14.928Z" transform="matrix(1,0,0,1,0,0)"></path><path d="M33.641,42.10301971435547l-19.053,11l3,5.196l-15.588,9l27.784,0.124l-4,-6.928l17.856,-1.072Z" transform="matrix(1,0,0,1,0,0)"></path><path d="M52.105,44.763450622558594l0,-22l-6,0l0,-18l-14,24.001l8,0l-8,16Z" transform="matrix(1,0,0,1,0,0)"></path></g></symbol></defs><rect width="100%" height="100%" id="BgenPttrnRctLayer1" fill="url(&quot;#BgenPttrnLayer1&quot;)"></rect><rect width="100%" height="100%" id="BgenPttrnRctLayer2" fill="url(&quot;#BgenPttrnLayer2&quot;)"></rect></svg>